<?xml version="1.0" encoding="UTF-8"?>
<svg id="Capa_1" xmlns="http://www.w3.org/2000/svg" version="1.1" viewBox="0 0 748.8 674.3">
  <!-- Generator: Adobe Illustrator 29.8.3, SVG Export Plug-In . SVG Version: 2.1.1 Build 3)  -->
  <defs>
    <style>
      .st0 {
        fill: #0020bf;
      }
    </style>
  </defs>
  <g id="Capa_11">
    <path class="st0" d="M500,328v43.5h-133.7c-12.8,0-24.4,16.8-24.4,28.8s11.9,28.8,24.4,28.8h177.9v43.1l-2.6,1.2c-56.1-2.2-114.3,2.8-170.1,0-15-.8-28.9-4.1-41.3-12.6-37.2-25.4-42.6-78.1-11.5-110.7-34.8-37.3-24.1-98.6,23.7-118.6,16.2-6.8,34.9-5.8,52.3-6.1,44.9-.9,90.1,1.5,134.9.8,4.7,0,10.4-2.5,14.6,1.1v41.2l-1.1,1.1h-174.6c-12,0-25.1,12.7-26.5,24.4-2.6,21,12.3,32.9,31.7,34,36.6,2.2,79.2.2,116.1-.8,3.5,0,6.8,0,10.2.8h0Z"/>
    <path class="st0" d="M655.6,78c68.8-1.8,114.9,71.6,82.7,132.9-31.2,59.2-115.1,65.3-154,10.7-42.3-59.4-1.2-141.6,71.3-143.6h0ZM653.4,102.7c-47.4,3.5-76,54.9-53.4,97.2,21.6,40.4,77.9,46.8,107.9,12,38.2-44.2,3.4-113.4-54.5-109.2Z"/>
    <path class="st0" d="M233.6,295h33l1.1,1.1v176.1l-1.1,1.1h-32.2c-.7-.6-1.9-3.5-1.9-4.1v-173.1l1.1-1.1h0Z"/>
    <polygon class="st0" points="267.7 223.1 267.7 257.9 266.6 259 233.2 259 233.2 223.1 267.7 223.1"/>
    <path class="st0" d="M671.9,184.1c8.1-1.3,8.9-12.6.8-13.5s-28.8,1.2-31.4-.6l-.5-9.3c.2-.9,2.6-1.2,3.4-1.2,9.8-.9,20.5.9,30.4-.3,5.9-2.8,5-11.6-1.9-12.4-12.5-1.5-27.6,1.2-40.4-.1-2.6-.9-3.7-10.6,1.3-11.2,8.5-1,27.9-.7,36.7,0s20.8,9.1,18.2,21.9c-.5,2.3-3.5,5.5-3.6,7.7s2.9,5.1,3.4,7.8c1.7,8.4-2.7,18.8-11.6,20.7-13.5,2.9-30.6.1-44.5,1-2.5-.8-2.9-8.6-.9-10.4h40.6v-.1h0Z"/>
    <rect class="st0" x="6.83" y="266.04" width="149.44" height="31.33" rx="10" ry="10"/>
    <rect class="st0" x="25.95" y="257.78" width="111.2" height="47.84" rx="10" ry="10"/>
    <rect class="st0" x="6.83" y="326.27" width="149.44" height="31.33" rx="10" ry="10"/>
    <rect class="st0" x="25.95" y="318.01" width="111.2" height="47.84" rx="10" ry="10"/>
    <rect class="st0" x="6.83" y="386.5" width="149.44" height="31.33" rx="10" ry="10"/>
    <rect class="st0" x="25.95" y="378.24" width="111.2" height="47.84" rx="10" ry="10"/>
    <g>
      <path class="st0" d="M712.9,299.7l-32.2,7.5c1.7,28.1,1.1,55.5-4,83.3-31.8,173.8-207.3,283.4-378.2,235.5-79.5-22.2-147-77.6-185-150.7l.2-1c5.7-2.5,10.7-7.5,13-13.3.5-1.2,2.4-7.9,2.4-8.8v-15H41.6v17.3c0,2.9,5.3,12.7,7.5,15,8.1,8.2,18,2.9,27.6,5.8,30.4,65.5,81.7,121.2,145.5,155.3,147.3,78.7,330.4,36.5,428.4-97.6,48.8-66.9,70.9-150.6,62.3-233.3h0Z"/>
      <path class="st0" d="M41.5,244.2h87.6v-11.7c0-10.1-7.8-21.1-17.8-23.4-1.5-.3-5.7,2.1-4.7-1.3,1-3.4,6.1-12.2,8.1-15.9C194.5,43.2,381.7-8.9,529,74c4.6,2.5,12,8.5,16.2,10,1,.3,1.8.9,2.8.2,3.6-5.1,7.4-10.2,11.6-14.7,1.5-1.7,9.5-8.2,9.3-9.3C498.4,10.8,407.4-9.2,322.3,6,209.8,26.1,113.8,102.6,70.3,208.1c-6.7,1.6-12.8-.2-19.1,4.2-4.4,3.1-9.2,11.9-9.8,17.2v.4c-.5,4.5.1,9.6.1,14.3Z"/>
    </g>
  </g>
</svg>